<?xml version="1.0" encoding="utf-8"?>
<!-- Generator: Adobe Illustrator 19.0.0, SVG Export Plug-In . SVG Version: 6.00 Build 0)  -->
<svg version="1.1" id="Lag_1" xmlns="http://www.w3.org/2000/svg" xmlns:xlink="http://www.w3.org/1999/xlink" x="0px" y="0px"
	 viewBox="0 0 170 114" style="enable-background:new 0 0 170 114;" xml:space="preserve">
<style type="text/css">
	.st0{opacity:0.3;}
	.st1{fill:#FFFFFF;}
</style>
<path id="XMLID_5_" class="st0" d="M128.6,36.5c-0.5,0-1,0.1-1.6,0.1c-2.3-15.5-15.6-27.4-31.7-27.4c-11.8,0-22.1,6.4-27.7,15.9
	c-3.5-2.7-7.8-4.3-12.5-4.3c-11.2,0-20.3,9.1-20.3,20.3c0,0.1,0,0.2,0,0.3c-12.9,0.2-23.2,10.7-23.2,23.7c0,12.5,9.7,22.8,22,23.6
	c3.9,13,15.9,22.5,30.2,22.5c5,0,9.7-1.2,13.9-3.3c4.2,3.4,9.5,5.5,15.3,5.5c9.5,0,17.7-5.4,21.7-13.4c4.2,2,9,3.1,14,3.1
	c18.4,0,33.3-14.9,33.3-33.3C161.9,51.5,147,36.5,128.6,36.5z"/>
<path id="XMLID_4_" class="st1" d="M124.6,31.5c-0.5,0-1,0.1-1.6,0.1c-2.3-15.5-15.6-27.4-31.7-27.4c-11.8,0-22.1,6.4-27.7,15.9
	c-3.5-2.7-7.8-4.3-12.5-4.3c-11.2,0-20.3,9.1-20.3,20.3c0,0.1,0,0.2,0,0.3C17.8,36.7,7.4,47.2,7.4,60.1c0,12.5,9.7,22.8,22,23.6
	c3.9,13,15.9,22.5,30.2,22.5c5,0,9.7-1.2,13.9-3.3c4.2,3.4,9.5,5.5,15.3,5.5c9.5,0,17.7-5.4,21.7-13.4c4.2,2,9,3.1,14,3.1
	c18.4,0,33.3-14.9,33.3-33.3C157.9,46.5,143,31.5,124.6,31.5z"/>
</svg>
