<svg xmlns="http://www.w3.org/2000/svg" width="201.052" height="169.81" viewBox="0 0 53.195 44.929"><style><![CDATA[.B{stroke:#000}.C{stroke-linecap:round}.D{stroke-width:.794}.E{fill:none}.F{stroke-width:1.191}.G{stroke-width:1.058}.H{stroke-linejoin:round}.I{fill-rule:evenodd}.J{stroke-width:.941}.K{stroke-width:1.323}]]></style><path d="M15.92-33.084c1.19-2.44 2.658-5.153 2.405-6.147-3.15-.432-6.567-.2-10.22.63l2.51-3.742c-1.59-1.84-4.49-2.37-7.578-2.712l3.93-3.373C5-50.993 4.226-52.062 1.205-53.664l4.905-.613c-.377-2.795-2.11-5.523-3.954-8.073l5.3 1.392c.637-1.373.248-4.455-.622-8.34l3.875 2.005c3.127-5.066 1.836-7.596 2.484-11.085l3.396 4.002c3.634-1.696 6.292-5.03 9.253-7.4-.663 3.682-.055 5.132.3 5.288-1.23 1.85 7.612-1.42 11.532-2.967-.973 1.864-1.614 3.286-1.832 4.143 2.532 2.594 5.84 1.41 8.82 1.988 0 0-4.36 1.2-5.544 2.288 2.57 1.75 6.32 3.4 9.63 3.663l-4.22 1.548c1.1 3.5 3.114 6.16 5.48 8.898l-5.212-1.147c.802 2.773 1.46 5.618 3.23 7.907l-4.3-1.493c-1.363 6.118.112 7.943.63 10.98l-3.387-2.83c-.495-.495-2.774 1.944-4.19 8.954-.156.77-1.973-4.747-2.712-4.6-2.53 1.183-5.233 3.055-8.262 7.477 0 0 .205-2.732-.518-5.055-3.398.02-5.977.458-9.354 3.647z" paint-order="markers fill stroke" class="B E F H"/><circle cx="5.597" cy="-63.177" r=".756"/><circle cx="10.228" cy="-69.98" r=".756"/><circle cx="17.504" cy="-77.162" r=".756"/><circle cx="27.425" cy="-78.296" r=".756"/><circle cx="38.198" cy="-76.217" r=".756"/><circle cx="43.773" cy="-70.736" r=".756"/><circle cx="46.891" cy="-64.216" r=".756"/><circle cx="47.742" cy="-55.145" r=".756"/><circle cx="44.812" cy="-48.058" r=".756"/><circle cx="40.938" cy="-40.687" r=".756"/><circle cx="33.568" cy="-36.341" r=".756"/><circle cx="22.89" cy="-33.789" r=".756"/><circle cx="14.763" cy="-36.813" r=".756"/><circle cx="7.487" cy="-41.538" r=".756"/><circle cx="3.613" cy="-48.908" r=".756"/><circle cx="3.613" cy="-56.562" r=".756"/><g class="B E"><ellipse cx="25.583" cy="-56.73" rx="15.734" ry="15.33" stroke-width="1.541" paint-order="markers fill stroke" class="H"/><path d="M35.552-68.374c1.586 1.337 4.13 3.715 7.175 8.2 0 0-1.482-.38-1.75-.715.236-2.726-5.252-8.32-5.426-7.494z" stroke-width="1.376" paint-order="markers stroke fill"/></g><path d="M19.82-42.34c-2.953-.965-5.15-2.042-9.45-4.82 1.91.005 2.312-.194 2.362-.78 2.087 2.756 4.754 4.194 7.087 5.6z" stroke-width="1.164" stroke-miterlimit="4.9000001" paint-order="markers stroke fill" class="B"/><g class="E B"><path d="M24.99-55.875c-.29-.678-1.14.023-1.228.44-.242 1.132 1.12 1.875 2.19 1.81 1.915-.114 3.015-1.963 2.723-3.575-.427-2.366-3.174-3.67-5.6-3.182-3.246.65-5 3.86-4.218 6.7.985 3.587 5.247 5.502 9.028 4.552 4.58-1.15 7.006-5.762 5.713-9.844-1.523-4.81-7.324-7.344-12.447-5.923-5.915 1.64-9.017 7.667-7.208 12.98C16-45.87 23.337-42.717 29.8-44.613c7.252-2.127 11.03-9.573 8.703-16.113-2.584-7.26-11.48-11.036-19.285-8.664" stroke-width="1.193" class="C"/><path d="M19.218-69.4c-7.98 3.434-10.394 9.843-8.04 18.8" class="D"/><path d="M24.99-55.875c.324.79 1.275-.027 1.375-.515.27-1.32-1.254-2.19-2.452-2.115-2.143.133-3.374 2.292-3.048 4.174.478 2.762 3.552 4.285 6.278 3.715 3.633-.76 5.597-4.505 4.72-7.833-1.102-4.187-5.873-6.424-10.105-5.314-5.126 1.343-7.84 6.727-6.394 11.492 1.705 5.616 8.197 8.573 13.93 6.914 6.62-1.915 10.092-8.95 8.067-15.15-2.3-7.046-10.523-10.727-17.758-8.514-4.28 1.31-7.757 4.483-9.418 8.465" stroke-width="1.192" class="C"/><path d="M18.418-55.897c-.8.837-1.527 1.8-3.155.886m13.357-.437c1.132.2 2.332.3 2.457 2.168m-2.693-4.245c.947-.656 1.863-1.437 3.27-.218M27.2-59.678c.478-1.048.866-2.187 2.698-1.86m-4.875 1.24c-.272-1.12-.672-2.254.97-3.13m-3.046 2.73c-.84-.8-1.793-1.523-.893-3.153m-2.124 4.948c-1.147.1-2.33.324-2.947-1.433m9.94 6.423c.85.778 1.813 1.5.935 3.14m-8.15-.728c-.3 1.1-.517 2.295-2.378 2.255m5.64-.04c.537 1.322 1.24 2.67-.705 3.585m5.748-3.446c.916 1.094 1.997 2.163.426 3.63m2.773-5.18c1.36.433 2.845.756 2.305 2.835" class="D"/><path d="M33.318-53.802c1.355-.335 2.766-.86 3.275 1.68" stroke-width=".863"/><path d="M24.65-54.073c.146 1.142.417 2.315-1.313 3.002" class="D"/><path d="M23.53-55.447c-.822.502-1.638 1.14-2.555-.384" stroke-width=".721"/><path d="M33.574-59.216c1.44-.933 2.868-2.103 4.468.52m-8.422-5.282c.524-1.633.9-3.443 3.8-2.425m-9.677 1.296c-1.088-1.326-2.4-2.615.017-4.498m-7 6.983c-1.65-.47-3.47-.778-2.546-3.708" stroke-width="1.041"/><path d="M13.687-55.913c-1.42.784-2.856 1.806-4.074-1.005m8.093 8.96c-.37 1.58-.57 3.33-3.474 2.353" stroke-width="1.01"/><path d="M29.7-45.41c1.272.88 2.77 1.7.65 3.62" stroke-width=".943"/><path d="M38.702-56.147c1.027-.404 2.088-.968 2.588 1.043m-8.246-12.048c.388-1.033.68-2.2 2.508-1.222" stroke-width=".683"/></g><circle cx="102.439" cy="-84.802" r=".756"/><circle cx="127.563" cy="-64.89" r=".756"/><circle cx="106.716" cy="-30.012" r=".756"/><circle cx="78.252" cy="-46.182" r=".756"/><circle cx="75.713" cy="-48.186" r=".756"/><g class="B E"><g class="C"><path d="M133.577-57.123c-.038.862-.923 1.362-1.69 1.24-1.146-.184-1.78-1.433-1.55-2.54.3-1.5 1.872-2.297 3.26-1.943 1.757.447 2.697 2.4 2.237 4.15-.56 2.118-2.824 3.24-4.83 2.648a4.17 4.17 0 0 1-1.251-.615"/><path d="M82.904-71.542c.275-.487 1.06-.562 1.58-.306.776.382.877 1.254.392 1.837-.652.783-2.015.872-2.918.334-1.143-.68-1.26-2.037-.426-2.93.452-.484 1.135-.802 1.87-.89" stroke-width=".802"/><path d="M92.114-34.626a19.58 19.58 0 0 1-10.62-11.723 19.58 19.58 0 0 1 1.703-15.726c3.007-5.133 8.505-8.727 14.414-9.42s12.1 1.53 16.202 5.83m2.552 3.495a18.46 18.46 0 0 1 3.751 10.867 18.46 18.46 0 0 1-3.467 10.961c-2.145 2.97-5.203 5.27-8.65 6.508s-7.27 1.4-10.815.484" stroke-width="1.587"/><g class="D"><path d="M108.932-61.414a4.42 4.42 0 0 0-5.616 2.197 4.42 4.42 0 0 0 1.922 5.716 4.4 4.4 0 0 0 4.743-.431 4.4 4.4 0 0 0 1.534-4.509"/><path d="M107.693-60.246a2.91 2.91 0 0 0-2.576 3.568 2.9 2.9 0 0 0 3.3 2.11 2.9 2.9 0 0 0 2.324-3.153"/></g></g><path d="M84.9-64.72c3.212 1.757 5.472 5.148 5.86 8.788.333 3.136-.667 6.318-2.362 8.977a18.4 18.4 0 0 1-4.725 5.008m-.76-2.08c2.76-1.578 4.8-4.36 5.48-7.465.477-2.182.283-4.543-.756-6.52a8.35 8.35 0 0 0-4.63-3.969m-1.086 2.6a9.7 9.7 0 0 1 3.402 4.63c.52 1.515.65 3.2.2 4.725a6.53 6.53 0 0 1-3.638 4.063M80.93-57.02a4.96 4.96 0 0 1 2.362 3.544c.128.93-.02 1.896-.42 2.746a4.9 4.9 0 0 1-1.85 2.073m32.083 12.143l-.283-.52a9.27 9.27 0 0 1 .094-8.379 9.27 9.27 0 0 1 6.899-4.756m-1.04 5.292c-.6-.235-1.3-.246-1.917-.032s-1.152.652-1.485 1.213a2.82 2.82 0 0 0 .709 3.638" class="D"/><g class="C"><path d="M119.86-48.28l-.7.283c-.912.362-1.836.722-2.646 1.276a6.46 6.46 0 0 0-2.362 2.977m.522 5.624c-.12-.15-.23-.308-.33-.472a4.61 4.61 0 0 1-.661-2.646" class="D"/><path d="M78.378-42.326a22.95 22.95 0 0 0 4.063 6.33 22.72 22.72 0 0 0 4.158 3.591m33.48-30.748a7.66 7.66 0 0 1 1.403 1.67c.943 1.52 1.33 3.376 1.07 5.145m-8.187 27.362a15.98 15.98 0 0 1-2.105 2.071 15.95 15.95 0 0 1-1.904 1.336m-27.562-41.36a32.25 32.25 0 0 0-2.973 4.31 32.23 32.23 0 0 0-2.138 4.477" class="G"/><path d="M77.116-56.806a9.27 9.27 0 0 0-.367 1.27 9.28 9.28 0 0 0-.2 2.205M126.43-34a4.82 4.82 0 0 1 2.835-.047m-7.845-9.13c-.423.3-.755.74-.945 1.228-.186.478-.236 1.008-.142 1.512M84.6-75.915a3.89 3.89 0 0 1 2.305-.601m13.797-1.07a4.16 4.16 0 0 1 2.873-.1m2.205 16.203a3.36 3.36 0 0 0-1.871-2.472m7.75 7.75a4.1 4.1 0 0 0 3.108.501m-12.028-1.47a6.74 6.74 0 0 1-1.036.1c-.493.01-.987-.035-1.47-.134m6.28 4.143c-.227.558-.32 1.17-.267 1.77.05.577.235 1.14.535 1.637m10.523.001a3.28 3.28 0 0 0-.267-1.069c-.197-.448-.496-.85-.87-1.17m-3.573 6.883h0l-.768-.535-.635-.735m1.17 7.885a2.12 2.12 0 0 1-1.169.568 2.11 2.11 0 0 1-1.047-.12 2.09 2.09 0 0 1-.857-.614" class="D"/><path d="M101.77-71.405a3.65 3.65 0 0 0 1.737 2.506 3.63 3.63 0 0 0 4.477-.702" class="G"/><path d="M102.14-70.403a3.37 3.37 0 0 1-2.105 1.102m6.228.706l.928 1.794m-16.517 3.17a4.02 4.02 0 0 0-1.137.379 4.05 4.05 0 0 0-1.342 1.108m5.308 4.17a3.22 3.22 0 0 0-1.312-.321c-.555-.015-1.114.117-1.604.38m3.295 5.773a7.29 7.29 0 0 1-1.254.058c-.633-.025-1.262-.133-1.867-.32m-4.258 8.052a2.6 2.6 0 0 0 1.283 1.867c.544.304 1.2.4 1.808.262m-.554-5.68a3.19 3.19 0 0 0 2.887 1.662" class="D"/></g></g><g fill="red" class="I B D"><ellipse cx="94.407" cy="-46.028" rx=".379" ry=".394" paint-order="normal"/><ellipse cx="94.582" cy="-41.289" rx=".379" ry=".394" paint-order="normal"/><ellipse cx="106.832" cy="-38.431" rx=".379" ry=".394" paint-order="normal"/><ellipse cx="114.24" cy="-53.305" rx=".379" ry=".394" paint-order="normal"/><ellipse cx="95.399" cy="-58.147" rx=".379" ry=".394" paint-order="normal"/><ellipse cx="92.424" cy="-64.388" rx=".379" ry=".394" paint-order="normal"/></g><g class="E B"><g stroke-width=".529" class="C"><path d="M94.057-82.47a4.94 4.94 0 0 1-1.225 3.733c-.726.808-1.73 1.362-2.8 1.546"/><path d="M97.936-77.717c-.952-.185-2.08-.516-2.683-.992-1.1-.797-1.196-3.762-1.196-3.762m-4.025 5.28s1.925.03 3.033.583c.58.627.554 3.937.554 3.937"/><path d="M97.936-77.717s-1.433.287-2.304.904c-1.167.827-2.012 4.142-2.012 4.142"/></g><path d="M118.4-26.874c.68-1.588 2.124-3.238 2.124-3.238.942.144 2.093.57 2.805.082.246-.996.772-1.547-1.35-1.838 0 0-1.132.716-.817-.43.776-1.175 1.876-1.93 1.94-3.114-2.017.137-2.862 1.238-3.733 1.63-1.242-.6-1.086-1.457-2.367-2.62.22 1.876.515 2.602.263 3.137-.753.548-1.254 1.493-1.853 1.686 1.063.42 1.805.48 3.507.58-.484.857-.44 1.307-.748 2.217-.1.936-.36 1.395.228 1.9z" stroke-width=".82" class="H"/></g><ellipse cx="98.044" cy="-40.963" rx="1.712" ry="1.655" stroke-width=".552" paint-order="normal" class="B H I"/><path d="M43.224 27.813a1.47 1.47 0 0 1-.858.135c-.29-.043-.568-.177-.782-.38s-.365-.47-.426-.758-.032-.594.083-.865a1.56 1.56 0 0 1 .556-.673c.243-.167.53-.267.824-.3.587-.063 1.183.15 1.653.505a2.88 2.88 0 0 1 1.056 1.602 2.71 2.71 0 0 1-.239 1.898c-.33.613-.907 1.08-1.56 1.315s-1.38.25-2.056.085c-.737-.18-1.406-.565-2.057-.956s-1.303-.796-2.026-1.028c-.917-.294-1.927-.3-2.84.012a4.64 4.64 0 0 0-2.292 1.68m6.18 4.61c.563.732 1.324 1.3 2.18 1.657s1.805.46 2.72.326a5.3 5.3 0 0 0 2.91-1.444 5.39 5.39 0 0 0 1.522-2.873c.144-.793.107-1.607.173-2.4s.25-1.633.76-2.256a2.44 2.44 0 0 1 .969-.716 2.26 2.26 0 0 1 1.195-.138 2.11 2.11 0 0 1 1.084.518 1.98 1.98 0 0 1 .601 1.037 1.92 1.92 0 0 1-1.284 2.216m-19.537-7.127c.713 2.333.814 4.85.292 7.233-.23 1.045-.582 2.076-1.172 2.968s-1.433 1.642-2.444 2a4.07 4.07 0 0 1-3.024-.164 4.07 4.07 0 0 1-2.051-2.227m12.54-.3a2.9 2.9 0 0 0-1.925-1.108c-.508-.064-1.032.01-1.502.216s-.882.536-1.182.95" class="C E F B"/><g class="H I B"><circle cx="39.141" cy="31.663" r=".3" paint-order="normal" class="J"/><circle cx="49.728" cy="30" r=".321" paint-order="normal" class="F"/><g class="J"><circle cx="29.283" cy="13.405" r=".3" paint-order="normal"/><circle cx="8.517" cy="32.771" r=".3" paint-order="normal"/></g></g><g class="C D E B"><path d="M5.25 18.888c-.284 1.26-1.203 2.357-2.392 2.858-.3.126-.62.217-.943.206a1.35 1.35 0 0 1-.473-.1 1.06 1.06 0 0 1-.392-.281.96.96 0 0 1-.149-1.009.96.96 0 0 1 .342-.406.96.96 0 0 1 .506-.16"/><path d="M1.75 19.997a.89.89 0 0 1-.797.084.89.89 0 0 1-.53-.601c-.036-.143-.035-.295-.003-.44a1.2 1.2 0 0 1 .176-.405c.164-.246.405-.433.663-.578a3.13 3.13 0 0 1 2.152-.334c.726.15 1.393.573 1.84 1.165"/></g><circle cx="8.879" cy="3.095" r=".3" paint-order="normal" class="B H I J"/><g class="E B"><g class="C F"><path d="M8.137 7.962a10.48 10.48 0 0 1 7.507-4.702 10.31 10.31 0 0 1 6.739 1.566 10.1 10.1 0 0 1 4.15 5.528c.538 1.802.547 3.763 0 5.562s-1.65 3.43-3.135 4.584c-1.335 1.038-2.97 1.687-4.653 1.846a9.03 9.03 0 0 1-4.917-.94M7.23 9.942a7.6 7.6 0 0 0-.73 4.023 7.59 7.59 0 0 0 1.474 3.814c.82 1.096 1.947 1.962 3.217 2.475m15.59-5.28a7.59 7.59 0 0 1 2.722 1.897 7.64 7.64 0 0 1 1.98 4.95m-16.082.217a2.8 2.8 0 0 1-1.442 1.428c-.637.273-1.377.294-2.03.06a2.8 2.8 0 0 1-1.581-1.463 2.8 2.8 0 0 1-.052-2.154"/><path d="M18.812 22.33a2.24 2.24 0 0 0 .997 1.524c.527.334 1.203.43 1.803.255a2.24 2.24 0 0 0 1.418-1.275 2.24 2.24 0 0 0-.106-1.904m-6.532 1.312a23.74 23.74 0 0 0 .321 4.987m-4.96-22.836v-.117c-.004-.643-.074-1.3.03-1.925a3.57 3.57 0 0 1 .817-1.75m11.636 5.63l1.458-2.567"/></g><path d="M21.058 10.634a5.28 5.28 0 0 0-1.837-3.471c-.742-.623-1.658-1.032-2.614-1.192s-1.95-.073-2.87.23c-1.422.467-2.664 1.455-3.454 2.726s-1.125 2.816-.95 4.303c.17 1.44.816 2.82 1.805 3.88s2.316 1.8 3.736 2.098c1.5.31 3.08.13 4.46-.513s2.54-1.75 3.24-3.103a6.93 6.93 0 0 0 .769-3.381 6.93 6.93 0 0 0-.973-3.328" class="C G"/><path d="M13.504 12.063a2.38 2.38 0 0 0-1.342-1.837 2.38 2.38 0 0 0-2.479.292m9.48 1.925c.063-.477.298-.93.65-1.256a2.11 2.11 0 0 1 1.303-.552c.474-.026.955.116 1.34.395a2.17 2.17 0 0 1 .8 1.15" class="K C"/><path d="M9.086 19.016a37.04 37.04 0 0 1-2.805 3.918l-1.036 1.34c-.31.472-.56.992-.655 1.55-.143.837.088 1.73.62 2.392" class="C F"/><path d="M5.745 24.09l.082.29c.26.86.635 1.692 1.196 2.392.646.806 1.533 1.416 2.516 1.732" class="C G"/><path d="M11.52 27.183a8.56 8.56 0 0 0-1.98 1.32c-.422.376-.827.805-1.36 1a1.73 1.73 0 0 1-1.691-.33m17.858-9.62a11.41 11.41 0 0 0 2.805 4.042l1.608 1.403c.518.487.993 1.04 1.28 1.7.283.644.37 1.378.206 2.062a3.03 3.03 0 0 1-1.279 1.815" class="F C"/><path d="M28.967 25.286a2.69 2.69 0 0 1-.247 2.516c-.28.41-.673.737-1.103.987s-.9.427-1.372.58a15.84 15.84 0 0 1-1.526.412" class="C G"/><path d="M27.853 31.184a4.62 4.62 0 0 1-2.186-.247 4.67 4.67 0 0 1-2.764-2.846m-11.96-.29l.206 5.733c.027 1.12.047 2.25.268 3.35s.658 2.18 1.423 3.002c.408.44.898.792 1.35 1.187s.873.85 1.085 1.4c.154.408.193.86.412 1.237.146.252.375.46.65.555a.99.99 0 0 0 .43.049.88.88 0 0 0 .405-.151.95.95 0 0 0 .325-.415 1.35 1.35 0 0 0 .097-.522c0-.356-.112-.702-.216-1.043-.2-.683-.396-1.392-.33-2.104.042-.453.198-.912.52-1.232a1.29 1.29 0 0 1 .584-.339c.22-.056.46-.045.67.045.284.122.493.374.652.64l.46.805c.266.377.642.66.993.958s.696.633.863 1.063c.093.24.126.5.17.754s.104.512.24.73c.188.3.514.498.86.567s.7.016 1.038-.113c.377-.148.714-.397.966-.713a2.31 2.31 0 0 0 .478-1.1c.1-.755-.16-1.508-.412-2.227l-.784-2.392a39.72 39.72 0 0 1-1.014-4.24" class="F C"/><path d="M11.52 37.247a10.72 10.72 0 0 0 4-.247m1.65-6.435l.866 6.022" class="G C"/><path d="M22.903 28.1l.43 5.206" class="C F"/><path d="M23.8 35.68c-.83.3-1.686.546-2.557.7a14.47 14.47 0 0 1-3.217.206m-2.836 5.94a3.96 3.96 0 0 0 1.237 0 4.05 4.05 0 0 0 1.155-.37m7.528-1.773a4.01 4.01 0 0 1-1.439 1.439c-.537.313-1.148.497-1.768.535" class="G C"/><g class="F C"><path d="M79.492 12.53c-.434 2.12-.714 4.27-.835 6.432-.146 2.6-.063 5.208 0 7.812l.168 2.5c.13.826.375 1.644.82 2.352.536.856 1.345 1.52 2.24 1.99s1.873.758 2.86.97c3.527.76 7.19.598 10.773.164.975-.118 1.96-.26 2.866-.637s1.738-1.02 2.15-1.912c.284-.613.353-1.3.41-1.974.244-2.844.346-5.7.33-8.553-.013-2.138-.092-4.278 0-6.414.037-.856.1-1.734-.164-2.55-.137-.424-.362-.822-.67-1.142s-.705-.56-1.138-.667c-.476-.117-.992-.066-1.436.14s-.814.57-1.03 1"/><path d="M95.135 12.762a7.78 7.78 0 0 1-2.442 1.221c-1.35.398-2.78.422-4.187.35a31.75 31.75 0 0 1-9.013-1.803"/></g><path d="M99.263 11.076a1.53 1.53 0 0 1 .872 1.803c-.1.356-.328.668-.6.907s-.616.4-.96.547c-1.334.53-2.8.55-4.245.523l-6.63-.407" stroke-width="1.199" class="C"/><path d="M107.288 16.658l1.977-1.628m-2.15 8.316l2.8.174M106 31.72a9.04 9.04 0 0 1 1.919 2.268M75.2 15.728a4.69 4.69 0 0 1-1.861-.291 4.7 4.7 0 0 1-1.454-.872m2.21 8.897l-2.966.058m4.595 9.362l-2.093 2.326" class="K C"/><g class="G"><path d="M89.087 18.984c-.05.638-.05 1.28 0 1.92.023.296.058.598.18.87a1.18 1.18 0 0 0 .251.365.87.87 0 0 0 .382.22c.142.037.292.032.438.013l.435-.07c.32-.04.643-.01.966-.001s.652 0 .953-.115c.38-.145.687-.452.872-.814.17-.33.242-.71.226-1.08s-.12-.738-.284-1.07c-.44-.89-1.276-1.505-1.977-2.2-.073-.073-.145-.148-.232-.205s-.19-.095-.292-.085a.46.46 0 0 0-.278.147c-.075.077-.13.17-.187.26a11.2 11.2 0 0 1-1.454 1.861z" class="H"/><g class="C"><path d="M93.4 18.984h-4.303m-2.5 7.734a7.07 7.07 0 0 1-.814 2.326c-.502.892-1.202 1.672-2.035 2.268"/><path d="M83.098 27.6a3.73 3.73 0 0 1 1.977 1.512c.26.402.444.857.756 1.22a2.22 2.22 0 0 0 1.454.756m4.42 1.804a2.05 2.05 0 0 1 .29-1.512c.1-.14.2-.268.34-.358s.3-.138.474-.107.307.138.423.26l.333.38c.205.206.477.35.767.38s.594-.062.803-.264a1.12 1.12 0 0 0 .29-.513c.052-.192.064-.393.06-.6-.006-.233-.035-.466-.017-.7s.087-.47.25-.638a.8.8 0 0 1 .362-.209 1.08 1.08 0 0 1 .42-.026c.28.035.54.16.788.293.18.098.36.203.556.27s.412.1.607.022c.13-.045.245-.13.327-.24a.69.69 0 0 0 .136-.38.71.71 0 0 0-.1-.392.69.69 0 0 0-.304-.267m1.51-12.27a5.75 5.75 0 0 1-1.745 2.269m-1.395 1.22c-.234.28-.536.5-.872.64a2.29 2.29 0 0 1-.872.174m5.756-.292c-.057.4-.22.785-.465 1.105a2.36 2.36 0 0 1-.756.64m-1.22 1.63l-1.454 1.454m-1.746 1.57a4.6 4.6 0 0 1-1.105.872 4.61 4.61 0 0 1-1.163.465m-1.57.64a2.97 2.97 0 0 1-1.105.64 2.93 2.93 0 0 1-1.22.116m-6.863-15.527c.012.378.1.754.233 1.105.127.316.305.6.523.872m1.977-1.57l1.22 1.803m-1.578 2.15a1.54 1.54 0 0 1-1.047-.465c-.25-.26-.404-.613-.424-.975m2.333 3.064a2.64 2.64 0 0 0 .555.637c.453.375 1.036.6 1.624.596m-5.818-1.686a2.84 2.84 0 0 0-.04 2.097 3.41 3.41 0 0 0 .493.863 4.24 4.24 0 0 0 1.192 1.07m-1.686 4.44l.082-2.056c.013-.283.026-.568-.007-.85s-.116-.563-.28-.794a1.29 1.29 0 0 0-1.604-.411"/><path d="M83.468 23.196a3.28 3.28 0 0 0-1.521 1.686m-1.974-1.357a3.3 3.3 0 0 0 1.192-1.151c.387-.634.55-1.402.452-2.138"/></g></g></g><g stroke-width=".489" class="H I B"><circle cx="81.536" cy="17.481" r=".532" paint-order="normal"/><circle cx="85.031" cy="23.484" r=".532" paint-order="normal"/><circle cx="82.193" cy="29.364" r=".532" paint-order="normal"/></g><g class="C E B"><path d="M95.763 34.7c1-.168 1.947-.648 2.673-1.357a5.02 5.02 0 0 0 .987-1.357m.205-1.264a1.07 1.07 0 0 0 .946-.082 1.06 1.06 0 0 0 .452-1.192" class="G"/><path d="M94.796 14.664l.247.04c.522.062 1.055-.032 1.547-.22s.945-.462 1.373-.768c.28-.2.555-.42.747-.705.096-.143.17-.3.208-.47s.038-.346-.01-.51a.92.92 0 0 0-.843-.658" class="D"/></g></svg>