<svg xmlns="http://www.w3.org/2000/svg" width="232.388" height="228.748" viewBox="0 0 61.486 60.523"><style><![CDATA[.B{stroke:#000}.C{stroke-linecap:round}.D{stroke-width:.794}.E{fill:none}.F{stroke-width:1.191}.G{stroke-width:1.058}.H{stroke-linejoin:round}.I{fill-rule:evenodd}.J{stroke-width:.941}.K{stroke-width:1.323}]]></style><path d="M-59.036 52.474c1.19-2.44 2.658-5.153 2.405-6.147-3.15-.432-6.567-.2-10.22.63l2.51-3.742c-1.59-1.84-4.49-2.37-7.578-2.712L-68 37.13c-1.967-2.564-2.74-3.633-5.763-5.235l4.905-.613c-.377-2.795-2.11-5.523-3.954-8.073l5.3 1.392c.637-1.373.248-4.455-.622-8.34l3.875 2.005c3.127-5.066 1.836-7.596 2.484-11.085l3.396 4.002c3.634-1.696 6.292-5.03 9.253-7.4-.663 3.682-.055 5.132.3 5.288-1.23 1.85 7.612-1.42 11.532-2.967-.973 1.864-1.614 3.286-1.832 4.143 2.532 2.594 5.84 1.41 8.82 1.988 0 0-4.36 1.2-5.544 2.288 2.57 1.75 6.32 3.4 9.63 3.663l-4.22 1.548c1.1 3.5 3.114 6.16 5.48 8.898l-5.212-1.147c.802 2.773 1.46 5.618 3.23 7.907l-4.3-1.493c-1.363 6.118.112 7.943.63 10.98l-3.387-2.83c-.495-.495-2.774 1.944-4.19 8.954-.156.77-1.973-4.747-2.712-4.6-2.53 1.183-5.233 3.055-8.262 7.477 0 0 .205-2.732-.518-5.055-3.398.02-5.977.458-9.354 3.647z" paint-order="markers fill stroke" class="B E F H"/><circle cx="-69.36" cy="22.381" r=".756"/><circle cx="-64.729" cy="15.578" r=".756"/><circle cx="-57.453" cy="8.396" r=".756"/><circle cx="-47.532" cy="7.262" r=".756"/><circle cx="-36.759" cy="9.341" r=".756"/><circle cx="-31.184" cy="14.822" r=".756"/><circle cx="-28.066" cy="21.342" r=".756"/><circle cx="-27.215" cy="30.413" r=".756"/><circle cx="-30.145" cy="37.5" r=".756"/><circle cx="-34.019" cy="44.871" r=".756"/><circle cx="-41.389" cy="49.217" r=".756"/><circle cx="-52.067" cy="51.769" r=".756"/><circle cx="-60.194" cy="48.745" r=".756"/><circle cx="-67.47" cy="44.02" r=".756"/><circle cx="-71.344" cy="36.65" r=".756"/><circle cx="-71.344" cy="28.996" r=".756"/><g class="B E"><ellipse cx="-49.374" cy="28.828" rx="15.734" ry="15.33" stroke-width="1.541" paint-order="markers fill stroke" class="H"/><path d="M-39.405 17.184c1.586 1.337 4.13 3.715 7.175 8.2 0 0-1.482-.38-1.75-.715.236-2.726-5.252-8.32-5.426-7.494z" stroke-width="1.376" paint-order="markers stroke fill"/></g><path d="M-55.138 43.217c-2.953-.965-5.15-2.042-9.45-4.82 1.91.005 2.312-.194 2.362-.78 2.087 2.756 4.754 4.194 7.087 5.6z" stroke-width="1.164" stroke-miterlimit="4.9000001" paint-order="markers stroke fill" class="B"/><g class="E B"><path d="M-49.966 29.683c-.29-.678-1.14.023-1.228.44-.242 1.132 1.12 1.875 2.19 1.81 1.915-.114 3.015-1.963 2.723-3.575-.427-2.366-3.174-3.67-5.6-3.182-3.246.65-5 3.86-4.218 6.7.985 3.587 5.247 5.502 9.028 4.552 4.58-1.15 7.006-5.762 5.713-9.844-1.523-4.81-7.324-7.344-12.447-5.923-5.915 1.64-9.017 7.667-7.208 12.98 2.055 6.035 9.402 9.19 15.866 7.293 7.252-2.127 11.03-9.573 8.703-16.113-2.584-7.26-11.48-11.036-19.285-8.664" stroke-width="1.193" class="C"/><path d="M-55.74 16.168c-7.98 3.434-10.394 9.843-8.04 18.8" class="D"/><path d="M-49.966 29.683c.324.79 1.275-.027 1.375-.515.27-1.32-1.254-2.19-2.452-2.115-2.143.133-3.374 2.292-3.048 4.174.478 2.762 3.552 4.285 6.278 3.715 3.633-.76 5.597-4.505 4.72-7.833-1.102-4.187-5.873-6.424-10.105-5.314-5.126 1.343-7.84 6.727-6.394 11.492 1.705 5.616 8.197 8.573 13.93 6.914 6.62-1.915 10.092-8.95 8.067-15.15-2.3-7.046-10.523-10.727-17.758-8.514-4.28 1.31-7.757 4.483-9.418 8.465" stroke-width="1.192" class="C"/><path d="M-56.54 29.66c-.8.837-1.527 1.8-3.155.886m13.36-.446c1.132.2 2.332.3 2.457 2.168m-2.694-4.235c.947-.656 1.863-1.437 3.27-.218m-4.465-1.935c.478-1.048.866-2.187 2.698-1.86m-4.874 1.24c-.272-1.12-.672-2.254.97-3.13m-3.046 2.73c-.84-.8-1.793-1.523-.893-3.153m-2.125 4.95c-1.147.1-2.33.324-2.947-1.433m9.94 6.423c.85.778 1.813 1.5.935 3.14m-8.15-.73c-.3 1.1-.517 2.295-2.378 2.255m5.64-.04c.537 1.322 1.24 2.67-.705 3.585m5.75-3.446c.916 1.094 1.997 2.163.426 3.63m2.773-5.18c1.36.433 2.845.756 2.305 2.835" class="D"/><path d="M-41.64 31.756c1.355-.335 2.766-.86 3.275 1.68" stroke-width=".863"/><path d="M-50.307 31.485c.146 1.142.417 2.315-1.313 3.002" class="D"/><path d="M-51.428 30.11c-.822.502-1.638 1.14-2.555-.384" stroke-width=".721"/><path d="M-41.383 26.342c1.44-.933 2.868-2.103 4.468.52m-8.422-5.282c.524-1.633.9-3.443 3.8-2.425m-9.677 1.295c-1.088-1.326-2.4-2.615.017-4.498m-6.99 6.984c-1.65-.47-3.47-.778-2.546-3.708" stroke-width="1.041"/><path d="M-61.27 29.645c-1.42.784-2.856 1.806-4.074-1.005m8.094 8.96c-.37 1.58-.57 3.33-3.474 2.353" stroke-width="1.01"/><path d="M-45.258 40.147c1.272.88 2.77 1.7.65 3.62" stroke-width=".943"/><path d="M-36.255 29.4c1.027-.404 2.088-.968 2.588 1.043m-8.246-12.047c.388-1.033.68-2.2 2.508-1.222" stroke-width=".683"/></g><circle cx="27.482" cy=".756" r=".756"/><circle cx="52.606" cy="20.668" r=".756"/><circle cx="31.759" cy="55.546" r=".756"/><circle cx="3.295" cy="39.376" r=".756"/><circle cx=".756" cy="37.372" r=".756"/><g class="B E"><g class="C"><path d="M58.62 28.435c-.038.862-.923 1.362-1.69 1.24-1.146-.184-1.78-1.433-1.55-2.54.3-1.5 1.872-2.297 3.26-1.943 1.757.447 2.697 2.4 2.237 4.15-.56 2.118-2.824 3.24-4.83 2.648a4.17 4.17 0 0 1-1.251-.615"/><path d="M7.947 14.016c.275-.487 1.06-.562 1.58-.306.776.382.877 1.254.392 1.837-.652.783-2.015.872-2.918.334-1.143-.68-1.26-2.037-.426-2.93.452-.484 1.135-.802 1.87-.89" stroke-width=".802"/><path d="M17.157 50.932a19.58 19.58 0 0 1-10.62-11.723A19.58 19.58 0 0 1 8.24 23.483c3.007-5.133 8.505-8.727 14.414-9.42s12.1 1.53 16.202 5.83m2.552 3.497a18.46 18.46 0 0 1 3.751 10.867 18.46 18.46 0 0 1-3.467 10.961c-2.145 2.97-5.203 5.27-8.65 6.508s-7.27 1.4-10.815.484" stroke-width="1.587"/><g class="D"><path d="M33.975 24.144a4.42 4.42 0 0 0-3.247-.025 4.42 4.42 0 0 0-2.369 2.222 4.42 4.42 0 0 0-.183 3.242 4.42 4.42 0 0 0 2.104 2.474 4.4 4.4 0 0 0 4.743-.431 4.4 4.4 0 0 0 1.534-4.509"/><path d="M32.736 25.312a2.91 2.91 0 0 0-2.123 1.181 2.91 2.91 0 0 0-.453 2.387 2.9 2.9 0 0 0 3.3 2.11 2.9 2.9 0 0 0 2.324-3.153"/></g></g><path d="M9.94 20.837c3.212 1.757 5.472 5.148 5.86 8.788.333 3.136-.667 6.318-2.362 8.977a18.4 18.4 0 0 1-4.725 5.008m-.756-2.08c2.76-1.578 4.8-4.36 5.48-7.465.477-2.182.283-4.543-.756-6.52a8.35 8.35 0 0 0-4.63-3.969m-1.086 2.6a9.7 9.7 0 0 1 3.402 4.63c.52 1.515.65 3.2.2 4.725a6.53 6.53 0 0 1-3.638 4.063M5.973 28.54a4.96 4.96 0 0 1 2.362 3.544c.128.93-.02 1.896-.42 2.746a4.9 4.9 0 0 1-1.85 2.073m32.083 12.14l-.283-.52a9.27 9.27 0 0 1 .094-8.379 9.27 9.27 0 0 1 6.899-4.756m-1.04 5.29c-.6-.235-1.3-.246-1.917-.032s-1.152.652-1.485 1.213a2.82 2.82 0 0 0 .709 3.638" class="D"/><g class="C"><path d="M44.904 37.28l-.7.283c-.912.362-1.836.722-2.646 1.276a6.46 6.46 0 0 0-2.362 2.977m.52 5.622c-.12-.15-.23-.308-.33-.472a4.61 4.61 0 0 1-.661-2.646" class="D"/><path d="M3.42 43.232a22.95 22.95 0 0 0 4.063 6.33 22.72 22.72 0 0 0 4.158 3.591m33.48-30.748a7.66 7.66 0 0 1 1.403 1.67c.943 1.52 1.33 3.376 1.07 5.145M39.4 56.582a15.98 15.98 0 0 1-2.105 2.071 15.95 15.95 0 0 1-1.904 1.336M7.838 18.63a32.25 32.25 0 0 0-2.973 4.31 32.23 32.23 0 0 0-2.138 4.477" class="G"/><path d="M2.16 28.752a9.27 9.27 0 0 0-.367 1.27 9.28 9.28 0 0 0-.2 2.205m49.88 19.32a4.82 4.82 0 0 1 2.835-.047m-7.844-9.12c-.423.3-.755.74-.945 1.228-.186.478-.236 1.008-.142 1.512M9.642 9.643a3.89 3.89 0 0 1 2.305-.601m13.798-1.07a4.16 4.16 0 0 1 2.873-.1m2.205 16.203a3.36 3.36 0 0 0-1.871-2.472m7.75 7.75a4.1 4.1 0 0 0 3.108.501m-12.028-1.47a6.74 6.74 0 0 1-1.036.1c-.493.01-.987-.035-1.47-.134m6.28 4.143c-.227.558-.32 1.17-.267 1.77.05.577.235 1.14.535 1.637m10.524.001a3.28 3.28 0 0 0-.267-1.069c-.197-.448-.496-.85-.87-1.17m-3.573 6.883h0l-.768-.535-.635-.735m1.168 7.884a2.12 2.12 0 0 1-1.169.568 2.11 2.11 0 0 1-1.047-.12 2.09 2.09 0 0 1-.857-.614" class="D"/><path d="M26.814 14.153a3.65 3.65 0 0 0 1.737 2.506 3.63 3.63 0 0 0 4.477-.702" class="G"/><path d="M27.182 15.155a3.37 3.37 0 0 1-2.105 1.102m6.23.706l.928 1.794m-16.517 3.17a4.02 4.02 0 0 0-1.137.379 4.05 4.05 0 0 0-1.342 1.108m5.308 4.17a3.22 3.22 0 0 0-1.312-.321c-.555-.015-1.114.117-1.604.38m3.295 5.775a7.29 7.29 0 0 1-1.254.058c-.633-.025-1.262-.133-1.867-.32m-4.258 8.05a2.6 2.6 0 0 0 1.283 1.867c.544.304 1.2.4 1.808.262m-.554-5.688a3.19 3.19 0 0 0 2.887 1.662" class="D"/></g></g><g fill="red" class="I B D"><ellipse cx="19.45" cy="39.53" rx=".379" ry=".394" paint-order="normal"/><ellipse cx="19.625" cy="44.269" rx=".379" ry=".394" paint-order="normal"/><ellipse cx="31.875" cy="47.127" rx=".379" ry=".394" paint-order="normal"/><ellipse cx="39.283" cy="32.253" rx=".379" ry=".394" paint-order="normal"/><ellipse cx="20.442" cy="27.411" rx=".379" ry=".394" paint-order="normal"/><ellipse cx="17.467" cy="21.17" rx=".379" ry=".394" paint-order="normal"/></g><g class="E B"><g stroke-width=".529" class="C"><path d="M19.1 3.087a4.94 4.94 0 0 1-1.225 3.733c-.726.808-1.73 1.362-2.8 1.546"/><path d="M22.98 7.84c-.952-.185-2.08-.516-2.683-.992-1.1-.797-1.196-3.762-1.196-3.762m-4.026 5.28s1.925.03 3.033.583c.58.627.554 3.937.554 3.937"/><path d="M22.98 7.84s-1.433.287-2.304.904c-1.167.827-2.012 4.142-2.012 4.142"/></g><path d="M43.453 58.684c.68-1.588 2.124-3.238 2.124-3.238.942.144 2.093.57 2.805.082.246-.996.772-1.547-1.35-1.838 0 0-1.132.716-.817-.43.776-1.175 1.876-1.93 1.94-3.114-2.017.137-2.862 1.238-3.733 1.63-1.242-.6-1.086-1.457-2.367-2.62.22 1.876.515 2.602.263 3.137-.753.548-1.254 1.493-1.853 1.686 1.063.42 1.805.48 3.507.58-.484.857-.44 1.307-.748 2.217-.1.936-.36 1.395.228 1.9z" stroke-width=".82" class="H"/></g><ellipse cx="23.087" cy="44.595" rx="1.712" ry="1.655" stroke-width=".552" paint-order="normal" class="B H I"/><path d="M-31.733 113.37a1.47 1.47 0 0 1-.858.135c-.29-.043-.568-.177-.782-.38s-.365-.47-.426-.758-.032-.594.083-.865a1.56 1.56 0 0 1 .556-.673c.243-.167.53-.267.824-.3.587-.063 1.183.15 1.653.505a2.88 2.88 0 0 1 1.056 1.602 2.71 2.71 0 0 1-.239 1.898c-.33.613-.907 1.08-1.56 1.315s-1.38.25-2.056.085c-.737-.18-1.406-.565-2.057-.956s-1.303-.796-2.026-1.028c-.917-.294-1.927-.3-2.84.012a4.64 4.64 0 0 0-2.292 1.68m6.18 4.612c.563.732 1.324 1.3 2.18 1.657s1.805.46 2.72.326a5.3 5.3 0 0 0 2.91-1.444 5.39 5.39 0 0 0 1.522-2.873c.144-.793.107-1.607.173-2.4s.25-1.633.76-2.256a2.44 2.44 0 0 1 .969-.716 2.26 2.26 0 0 1 1.195-.138 2.11 2.11 0 0 1 1.084.518 1.98 1.98 0 0 1 .601 1.037 1.92 1.92 0 0 1-1.284 2.216m-19.538-7.126c.713 2.333.814 4.85.292 7.233-.23 1.045-.582 2.076-1.172 2.968s-1.433 1.642-2.444 2a4.07 4.07 0 0 1-5.075-2.392m12.54-.3a2.9 2.9 0 0 0-1.925-1.108c-.508-.064-1.032.01-1.502.216s-.882.536-1.182.95" class="C E F B"/><g class="H I B"><circle cx="-35.816" cy="117.221" r=".3" paint-order="normal" class="J"/><circle cx="-25.229" cy="115.558" r=".321" paint-order="normal" class="F"/><g class="J"><circle cx="-45.674" cy="98.963" r=".3" paint-order="normal"/><circle cx="-66.44" cy="118.329" r=".3" paint-order="normal"/></g></g><g class="C D E B"><path d="M-69.707 104.446c-.284 1.26-1.203 2.357-2.392 2.858-.3.126-.62.217-.943.206a1.35 1.35 0 0 1-.473-.1 1.06 1.06 0 0 1-.392-.281.96.96 0 0 1-.149-1.009.96.96 0 0 1 .849-.566"/><path d="M-73.207 105.555a.89.89 0 0 1-.797.084.89.89 0 0 1-.53-.601c-.036-.143-.035-.295-.003-.44a1.2 1.2 0 0 1 .176-.405c.164-.246.405-.433.663-.578a3.13 3.13 0 0 1 2.152-.334c.726.15 1.393.573 1.84 1.165"/></g><circle cx="-66.078" cy="88.653" r=".3" paint-order="normal" class="B H I J"/><g class="E B"><g class="C F"><path d="M-66.82 93.52a10.48 10.48 0 0 1 7.507-4.702 10.31 10.31 0 0 1 6.739 1.566 10.1 10.1 0 0 1 4.15 5.528c.538 1.802.547 3.763 0 5.562s-1.65 3.43-3.135 4.584c-1.335 1.038-2.97 1.687-4.653 1.846a9.03 9.03 0 0 1-4.917-.94M-67.727 95.5a7.6 7.6 0 0 0-.73 4.023 7.59 7.59 0 0 0 1.474 3.814c.82 1.096 1.947 1.962 3.217 2.475m15.6-5.28a7.59 7.59 0 0 1 2.722 1.897 7.64 7.64 0 0 1 1.98 4.95m-16.083.217a2.8 2.8 0 0 1-1.442 1.428c-.637.273-1.377.294-2.03.06a2.8 2.8 0 0 1-1.633-3.617"/><path d="M-56.145 107.888a2.24 2.24 0 0 0 .997 1.524c.527.334 1.203.43 1.803.255a2.24 2.24 0 0 0 1.312-3.179m-6.532 1.312a23.74 23.74 0 0 0 .321 4.987m-4.96-22.837v-.117c-.004-.643-.074-1.3.03-1.925a3.57 3.57 0 0 1 .817-1.75m11.636 5.63l1.458-2.567"/></g><path d="M-53.9 96.192a5.28 5.28 0 0 0-1.837-3.471c-.742-.623-1.658-1.032-2.614-1.192s-1.95-.073-2.87.23c-1.422.467-2.664 1.455-3.454 2.726s-1.125 2.816-.95 4.303c.17 1.44.816 2.82 1.805 3.88s2.316 1.8 3.736 2.098c1.5.31 3.08.13 4.46-.513s2.54-1.75 3.24-3.103a6.93 6.93 0 0 0-.204-6.708" class="C G"/><path d="M-61.453 97.622a2.38 2.38 0 0 0-3.821-1.545m9.48 1.923c.063-.477.298-.93.65-1.256a2.11 2.11 0 0 1 1.303-.552c.474-.026.955.116 1.34.395a2.17 2.17 0 0 1 .8 1.15" class="K C"/><path d="M-65.87 104.574a37.04 37.04 0 0 1-2.805 3.918l-1.036 1.34c-.31.472-.56.992-.655 1.55-.143.837.088 1.73.62 2.392" class="C F"/><path d="M-69.212 109.647l.082.29c.26.86.635 1.692 1.196 2.392.646.806 1.533 1.416 2.516 1.732" class="C G"/><path d="M-63.438 112.74a8.56 8.56 0 0 0-1.98 1.32c-.422.376-.827.805-1.36 1a1.73 1.73 0 0 1-1.691-.33m17.87-9.63a11.41 11.41 0 0 0 2.805 4.042l1.608 1.403c.518.487.993 1.04 1.28 1.7.283.644.37 1.378.206 2.062a3.03 3.03 0 0 1-1.279 1.815" class="F C"/><path d="M-46 110.844a2.69 2.69 0 0 1-.247 2.516c-.28.41-.673.737-1.103.987s-.9.427-1.372.58a15.84 15.84 0 0 1-1.526.412" class="C G"/><path d="M-47.104 116.742a4.62 4.62 0 0 1-2.186-.247 4.67 4.67 0 0 1-2.764-2.846m-11.96-.29l.206 5.733c.027 1.12.047 2.25.268 3.35s.658 2.18 1.423 3.002c.408.44.898.792 1.35 1.187s.873.85 1.085 1.4c.154.408.193.86.412 1.237.146.252.375.46.65.555a.99.99 0 0 0 .43.049.88.88 0 0 0 .405-.151.95.95 0 0 0 .325-.415 1.35 1.35 0 0 0 .097-.522c0-.356-.112-.702-.216-1.043-.2-.683-.396-1.392-.33-2.104.042-.453.198-.912.52-1.232a1.29 1.29 0 0 1 .584-.339c.22-.056.46-.045.67.045.284.122.493.374.652.64l.46.805c.266.377.642.66.993.958s.696.633.863 1.063c.093.24.126.5.17.754s.104.512.24.73c.188.3.514.498.86.567s.7.016 1.038-.113c.377-.148.714-.397.966-.713a2.31 2.31 0 0 0 .478-1.1c.1-.755-.16-1.508-.412-2.227l-.784-2.392a39.72 39.72 0 0 1-1.014-4.24" class="F C"/><path d="M-63.438 122.805a10.72 10.72 0 0 0 4.001-.247m1.65-6.435l.866 6.022" class="G C"/><path d="M-52.054 113.648l.43 5.206" class="C F"/><path d="M-51.146 121.238c-.83.3-1.686.546-2.557.7a14.47 14.47 0 0 1-3.217.206m-2.847 5.94a3.96 3.96 0 0 0 1.237 0 4.02 4.02 0 0 0 1.155-.37m7.54-1.773a4.01 4.01 0 0 1-1.439 1.439c-.537.313-1.148.497-1.768.535" class="G C"/><g class="F C"><path d="M4.535 98.088c-.434 2.12-.714 4.27-.835 6.432-.146 2.6-.063 5.208 0 7.812l.168 2.5c.13.826.375 1.644.82 2.352.536.856 1.345 1.52 2.24 1.99s1.873.758 2.86.97c3.527.76 7.19.598 10.773.164.975-.118 1.96-.26 2.866-.637s1.738-1.02 2.15-1.912c.284-.613.353-1.3.41-1.974.244-2.844.346-5.7.33-8.553-.013-2.138-.092-4.278 0-6.414.037-.856.1-1.734-.164-2.55-.137-.424-.362-.822-.67-1.142s-.705-.56-1.138-.667c-.476-.117-.992-.066-1.436.14s-.814.57-1.03 1"/><path d="M20.178 98.32a7.78 7.78 0 0 1-2.442 1.221c-1.35.398-2.78.422-4.187.35a31.75 31.75 0 0 1-9.013-1.803"/></g><path d="M24.306 96.634a1.53 1.53 0 0 1 .872 1.803c-.1.356-.328.668-.6.907s-.616.4-.96.547c-1.334.53-2.8.55-4.245.523l-6.63-.407" stroke-width="1.199" class="C"/><path d="M32.33 102.216l1.977-1.628m-2.15 8.316l2.8.174m-3.895 8.2a9.04 9.04 0 0 1 1.919 2.268m-32.74-18.26a4.69 4.69 0 0 1-1.861-.291 4.7 4.7 0 0 1-1.454-.872m2.2 8.897l-2.966.058m4.595 9.362l-2.093 2.326" class="K C"/><g class="G"><path d="M14.13 104.542c-.05.638-.05 1.28 0 1.92.023.296.058.598.18.87a1.18 1.18 0 0 0 .251.365.87.87 0 0 0 .382.22c.142.037.292.032.438.013l.435-.07c.32-.04.643-.01.966-.001s.652 0 .953-.115c.38-.145.687-.452.872-.814.17-.33.242-.71.226-1.08s-.12-.738-.284-1.07c-.44-.89-1.276-1.505-1.977-2.2-.073-.073-.145-.148-.232-.205s-.19-.095-.292-.085a.46.46 0 0 0-.278.147c-.075.077-.13.17-.187.26a11.2 11.2 0 0 1-1.454 1.861z" class="H"/><g class="C"><path d="M18.433 104.542H14.13m-2.5 7.734a7.07 7.07 0 0 1-.814 2.326c-.502.892-1.202 1.672-2.035 2.268"/><path d="M8.14 113.15a3.73 3.73 0 0 1 1.977 1.512c.26.402.444.857.756 1.22a2.22 2.22 0 0 0 1.454.756m4.42 1.802a2.05 2.05 0 0 1 .29-1.512c.1-.14.2-.268.34-.358s.3-.138.474-.107.307.138.423.26l.333.38c.205.206.477.35.767.38s.594-.062.803-.264a1.12 1.12 0 0 0 .29-.513c.052-.192.064-.393.06-.6-.006-.233-.035-.466-.017-.7s.087-.47.25-.638a.8.8 0 0 1 .362-.209 1.08 1.08 0 0 1 .42-.026c.28.035.54.16.788.293.18.098.36.203.556.27s.412.1.607.022c.13-.045.245-.13.327-.24a.69.69 0 0 0 .136-.38.71.71 0 0 0-.1-.392.69.69 0 0 0-.304-.267m1.5-12.272a5.75 5.75 0 0 1-1.745 2.269m-1.395 1.22c-.234.28-.536.5-.872.64a2.29 2.29 0 0 1-.872.174m5.757-.3c-.057.4-.22.785-.465 1.105a2.36 2.36 0 0 1-.756.64m-1.222 1.627l-1.454 1.454m-1.744 1.57a4.6 4.6 0 0 1-1.105.872 4.61 4.61 0 0 1-1.163.465m-1.57.64a2.97 2.97 0 0 1-1.105.64 2.93 2.93 0 0 1-1.22.116M7.268 99.192c.012.378.1.754.233 1.105.127.316.305.6.523.872M10 99.6l1.22 1.803m-1.567 2.15a1.54 1.54 0 0 1-1.047-.465c-.25-.26-.404-.613-.424-.975m2.323 3.063a2.64 2.64 0 0 0 .555.637c.453.375 1.036.6 1.624.596m-5.818-1.685a2.84 2.84 0 0 0-.04 2.097 3.41 3.41 0 0 0 .493.863 4.24 4.24 0 0 0 1.192 1.07m-1.686 4.44l.082-2.056c.013-.283.026-.568-.007-.85s-.116-.563-.28-.794a1.29 1.29 0 0 0-.726-.5 1.29 1.29 0 0 0-.877.089"/><path d="M8.5 108.754a3.28 3.28 0 0 0-1.521 1.686m-1.973-1.357a3.3 3.3 0 0 0 1.192-1.151c.387-.634.55-1.402.452-2.138"/></g></g></g><g stroke-width=".489" class="H I B"><circle cx="6.579" cy="103.039" r=".532" paint-order="normal"/><circle cx="10.074" cy="109.042" r=".532" paint-order="normal"/><circle cx="7.236" cy="114.922" r=".532" paint-order="normal"/></g><g class="C E B"><path d="M20.805 120.268c1-.168 1.947-.648 2.673-1.357a5.02 5.02 0 0 0 .987-1.357m.205-1.274a1.07 1.07 0 0 0 .946-.082 1.06 1.06 0 0 0 .452-1.192" class="G"/><path d="M19.84 100.222l.247.04c.522.062 1.055-.032 1.547-.22s.945-.462 1.373-.768c.28-.2.555-.42.747-.705.096-.143.17-.3.208-.47s.038-.346-.01-.51a.92.92 0 0 0-.843-.658" class="D"/></g></svg>