<svg xmlns="http://www.w3.org/2000/svg" width="188.912" height="193.852" viewBox="0 0 49.983 51.29"><style><![CDATA[.B{stroke:#000}.C{stroke-width:.794}.D{stroke-linejoin:round}.E{stroke-linecap:round}]]></style><path d="M15.31 49.287c1.19-2.44 2.658-5.153 2.405-6.147-3.15-.432-6.567-.2-10.22.63l2.51-3.742c-1.59-1.84-4.49-2.37-7.578-2.712l3.93-3.373C4.4 31.378 3.616 30.31.595 28.707l4.905-.613c-.377-2.795-2.11-5.523-3.954-8.073l5.3 1.392c.637-1.373.248-4.455-.622-8.34l3.875 2.005C13.226 10 11.935 7.48 12.583 3.992l3.396 4.002c3.634-1.696 6.292-5.03 9.253-7.4-.663 3.682-.755 5.365-.4 5.52 3.92-.083 8.312-1.655 12.232-3.2-.973 1.864-1.614 3.286-1.832 4.143 2.532 2.594 5.84 1.41 8.82 1.988 0 0-4.36 1.2-5.544 2.288 2.57 1.75 6.32 3.4 9.63 3.663l-4.22 1.548c1.1 3.5 3.114 6.16 5.48 8.898l-5.212-1.147c.802 2.773 1.46 5.618 3.23 7.907l-4.3-1.493c-1.363 6.118.112 7.943.63 10.98l-3.387-2.83c-.495-.495-2.774 1.944-4.19 8.954-.156.77-1.973-4.747-2.712-4.6-2.53 1.183-5.233 3.055-8.262 7.477 0 0 .205-2.732-.518-5.055-3.398.02-5.977.458-9.354 3.647z" fill="none" stroke-width="1.191" paint-order="markers fill stroke" class="B D"/><circle cx="4.987" cy="19.194" r=".756"/><circle cx="9.618" cy="12.391" r=".756"/><circle cx="16.894" cy="5.209" r=".756"/><circle cx="26.815" cy="4.075" r=".756"/><circle cx="37.588" cy="6.154" r=".756"/><circle cx="43.163" cy="11.635" r=".756"/><circle cx="46.281" cy="18.155" r=".756"/><circle cx="47.132" cy="27.226" r=".756"/><circle cx="44.202" cy="34.313" r=".756"/><circle cx="40.328" cy="41.684" r=".756"/><circle cx="32.958" cy="46.03" r=".756"/><circle cx="22.28" cy="48.582" r=".756"/><circle cx="14.153" cy="45.558" r=".756"/><circle cx="6.877" cy="40.833" r=".756"/><circle cx="3.003" cy="33.463" r=".756"/><circle cx="3.003" cy="25.809" r=".756"/><g fill="none" class="B"><ellipse cx="24.973" cy="25.641" rx="15.734" ry="15.33" stroke-width="1.541" paint-order="markers fill stroke" class="D"/><path d="M34.942 13.997c1.586 1.337 4.13 3.715 7.175 8.2 0 0-1.482-.38-1.75-.715.236-2.726-5.252-8.32-5.426-7.494z" stroke-width="1.376" paint-order="markers stroke fill"/></g><path d="M19.21 40.03c-2.953-.965-5.15-2.042-9.45-4.82 1.91.005 2.312-.194 2.362-.78 2.087 2.756 4.754 4.194 7.087 5.6z" stroke-width="1.164" stroke-miterlimit="4.9000001" paint-order="markers stroke fill" class="B"/><g fill="none" class="B"><path d="M24.38 26.496c-.29-.678-1.14.023-1.228.44-.242 1.132 1.12 1.875 2.19 1.81 1.915-.114 3.015-1.963 2.723-3.575-.427-2.366-3.174-3.67-5.6-3.182-3.246.65-5 3.86-4.218 6.7.985 3.587 5.247 5.502 9.028 4.552 4.58-1.15 7.006-5.762 5.713-9.844-1.523-4.81-7.324-7.344-12.447-5.923-5.915 1.64-9.017 7.667-7.208 12.98 2.055 6.035 9.402 9.19 15.866 7.293 7.252-2.127 11.03-9.573 8.703-16.113-2.584-7.26-11.48-11.036-19.285-8.664" stroke-width="1.193" class="E"/><path d="M18.608 12.98c-7.98 3.434-10.394 9.843-8.04 18.8" class="C"/><path d="M24.38 26.496c.324.79 1.275-.027 1.375-.515.27-1.32-1.254-2.19-2.452-2.115-2.143.133-3.374 2.292-3.048 4.174.478 2.762 3.552 4.285 6.278 3.715 3.633-.76 5.597-4.505 4.72-7.833-1.102-4.187-5.873-6.424-10.105-5.314-5.126 1.343-7.84 6.727-6.394 11.492 1.705 5.616 8.197 8.573 13.93 6.914 6.62-1.915 10.092-8.95 8.067-15.15-2.3-7.046-10.523-10.727-17.758-8.514-4.28 1.31-7.757 4.483-9.418 8.465" stroke-width="1.192" class="E"/><path d="M17.808 26.474c-.8.837-1.527 1.8-3.155.886M28 26.923c1.132.2 2.332.3 2.457 2.168m-2.693-4.245c.947-.656 1.863-1.437 3.27-.218m-4.464-1.935c.478-1.048.866-2.187 2.698-1.86m-4.875 1.24c-.272-1.12-.672-2.254.97-3.13m-3.046 2.73c-.84-.8-1.793-1.523-.893-3.153M19.3 23.47c-1.147.1-2.33.324-2.947-1.433m9.94 6.423c.85.778 1.813 1.5.935 3.14m-8.15-.73c-.3 1.1-.517 2.295-2.378 2.255m5.64-.04c.537 1.322 1.24 2.67-.705 3.585m5.748-3.446c.916 1.094 1.997 2.163.426 3.63m2.773-5.18c1.36.433 2.845.756 2.305 2.835" class="C"/><path d="M32.708 28.57c1.355-.335 2.766-.86 3.275 1.68" stroke-width=".863"/><path d="M24.04 28.298c.146 1.142.417 2.315-1.313 3.002" class="C"/><path d="M22.92 26.924c-.822.502-1.638 1.14-2.555-.384" stroke-width=".721"/><path d="M32.964 23.155c1.44-.933 2.868-2.103 4.468.52M29 18.393c.524-1.633.9-3.443 3.8-2.425m-9.667 1.296c-1.088-1.326-2.4-2.615.017-4.498m-7 6.984c-1.65-.47-3.47-.778-2.546-3.708" stroke-width="1.041"/><path d="M13.077 26.458c-1.42.784-2.856 1.806-4.074-1.005m8.093 8.96c-.37 1.58-.57 3.33-3.474 2.353" stroke-width="1.01"/><path d="M29.09 36.96c1.272.88 2.77 1.7.65 3.62" stroke-width=".943"/><path d="M38.092 26.224c1.027-.404 2.088-.968 2.588 1.043M32.434 15.22c.388-1.033.68-2.2 2.508-1.222" stroke-width=".683"/></g></svg>